<?xml version="1.0" encoding="utf-8"?>

<!DOCTYPE svg PUBLIC "-//W3C//DTD SVG 1.1//EN" "http://www.w3.org/Graphics/SVG/1.1/DTD/svg11.dtd">
<!-- Uploaded to: SVG Repo, www.svgrepo.com, Generator: SVG Repo Mixer Tools -->
<svg height="800px" width="800px" version="1.1" id="_x32_" xmlns="http://www.w3.org/2000/svg" xmlns:xlink="http://www.w3.org/1999/xlink" 
	 viewBox="0 0 512 512"  xml:space="preserve">
<style type="text/css">
	.st0{fill:#000000;}
</style>
<g>
	<path class="st0" d="M378.409,0H208.294h-13.176l-9.314,9.315L57.017,138.101l-9.314,9.315v13.176v265.513
		c0,47.36,38.528,85.896,85.895,85.896h244.811c47.361,0,85.888-38.535,85.888-85.896V85.896C464.297,38.528,425.77,0,378.409,0z
		 M432.493,426.104c0,29.877-24.214,54.091-54.084,54.091H133.598c-29.877,0-54.091-24.214-54.091-54.091V160.592h83.717
		c24.884,0,45.07-20.179,45.07-45.071V31.804h170.114c29.87,0,54.084,24.214,54.084,54.091V426.104z"/>
</g>
</svg>